<?xml version="1.0" encoding="utf-8" standalone="no"?>
<!DOCTYPE svg PUBLIC "-//W3C//DTD SVG 1.1//EN"
  "http://www.w3.org/Graphics/SVG/1.1/DTD/svg11.dtd">
<svg xmlns:xlink="http://www.w3.org/1999/xlink" width="518.4pt" height="259.2pt" viewBox="0 0 518.4 259.2" xmlns="http://www.w3.org/2000/svg" version="1.1">
 <metadata>
  <rdf:RDF xmlns:dc="http://purl.org/dc/elements/1.1/" xmlns:cc="http://creativecommons.org/ns#" xmlns:rdf="http://www.w3.org/1999/02/22-rdf-syntax-ns#">
   <cc:Work>
    <dc:type rdf:resource="http://purl.org/dc/dcmitype/StillImage"/>
    <dc:date>2026-09-22T12:21:32.397072</dc:date>
    <dc:format>image/svg+xml</dc:format>
    <dc:creator>
     <cc:Agent>
      <dc:title>Matplotlib v3.11.2, https://matplotlib.org/</dc:title>
     </cc:Agent>
    </dc:creator>
   </cc:Work>
  </rdf:RDF>
 </metadata>
 <defs>
  <style type="text/css">*{stroke-linejoin: round; stroke-linecap: butt}</style>
 </defs>
 <g id="figure_1">
  <g id="patch_1">
   <path d="M 0 259.2 
L 518.4 259.2 
L 518.4 0 
L 0 0 
z
" style="fill: #ffffff"/>
  </g>
  <g id="axes_1">
   <g id="patch_2">
    <path d="M 43.992202 181.354507 
L 64.488182 181.354507 
Q 100.356149 181.354507 100.356149 148.609709 
L 100.356149 129.898396 
Q 100.356149 97.153598 64.488182 97.153598 
L 43.992202 97.153598 
Q 8.124235 97.153598 8.124235 129.898396 
L 8.124235 148.609709 
Q 8.124235 181.354507 43.992202 181.354507 
z
" clip-path="url(#p376ce0ef44)" style="fill: #eaf2f5; stroke: #166a8f; stroke-linejoin: miter"/>
   </g>
   <g id="patch_3">
    <path d="M 124.438926 180.418942 
L 189.001266 180.418942 
Q 201.811254 180.418942 201.811254 168.724371 
L 201.811254 109.783735 
Q 201.811254 98.089164 189.001266 98.089164 
L 124.438926 98.089164 
Q 111.628938 98.089164 111.628938 109.783735 
L 111.628938 168.724371 
Q 111.628938 180.418942 124.438926 180.418942 
z
" clip-path="url(#p376ce0ef44)" style="fill: #eaf2f5; stroke: #166a8f; stroke-linejoin: miter"/>
   </g>
   <g id="patch_4">
    <path d="M 226.91883 180.418942 
L 291.48117 180.418942 
Q 304.291158 180.418942 304.291158 168.724371 
L 304.291158 109.783735 
Q 304.291158 98.089164 291.48117 98.089164 
L 226.91883 98.089164 
Q 214.108842 98.089164 214.108842 109.783735 
L 214.108842 168.724371 
Q 214.108842 180.418942 226.91883 180.418942 
z
" clip-path="url(#p376ce0ef44)" style="fill: #eaf2f5; stroke: #166a8f; stroke-linejoin: miter"/>
   </g>
   <g id="patch_5">
    <path d="M 329.398734 180.418942 
L 393.961074 180.418942 
Q 406.771062 180.418942 406.771062 168.724371 
L 406.771062 109.783735 
Q 406.771062 98.089164 393.961074 98.089164 
L 329.398734 98.089164 
Q 316.588746 98.089164 316.588746 109.783735 
L 316.588746 168.724371 
Q 316.588746 180.418942 329.398734 180.418942 
z
" clip-path="url(#p376ce0ef44)" style="fill: #eaf2f5; stroke: #166a8f; stroke-linejoin: miter"/>
   </g>
   <g id="patch_6">
    <path d="M 453.911818 181.354507 
L 474.407798 181.354507 
Q 510.275765 181.354507 510.275765 148.609709 
L 510.275765 129.898396 
Q 510.275765 97.153598 474.407798 97.153598 
L 453.911818 97.153598 
Q 418.043851 97.153598 418.043851 129.898396 
L 418.043851 148.609709 
Q 418.043851 181.354507 453.911818 181.354507 
z
" clip-path="url(#p376ce0ef44)" style="fill: #eaf2f5; stroke: #166a8f; stroke-linejoin: miter"/>
   </g>
   <g id="text_1">
    <text style="font-size: 9px; font-family: 'Microsoft YaHei', 'Arial', 'DejaVu Sans', sans-serif; text-anchor: start; fill: #243444" x="3.00024" y="10.308345" transform="rotate(-0 3.00024 10.308345)">Illustrative model architecture</text>
   </g>
   <g id="patch_7">
    <path d="M 90.525108 139.254053 
Q 105.48039 139.254053 119.094031 139.254053 
" clip-path="url(#p376ce0ef44)" style="fill: none; stroke: #56636b; stroke-width: 1.2; stroke-linecap: round"/>
    <path d="M 114.294031 136.854053 
L 119.094031 139.254053 
L 114.294031 141.654053 
z
" clip-path="url(#p376ce0ef44)" style="fill: #56636b; stroke: #56636b; stroke-width: 1.2; stroke-linecap: round"/>
   </g>
   <g id="patch_8">
    <path d="M 193.005012 139.254053 
Q 207.960294 139.254053 221.573935 139.254053 
" clip-path="url(#p376ce0ef44)" style="fill: none; stroke: #56636b; stroke-width: 1.2; stroke-linecap: round"/>
    <path d="M 216.773935 136.854053 
L 221.573935 139.254053 
L 216.773935 141.654053 
z
" clip-path="url(#p376ce0ef44)" style="fill: #56636b; stroke: #56636b; stroke-width: 1.2; stroke-linecap: round"/>
   </g>
   <g id="patch_9">
    <path d="M 295.484916 139.254053 
Q 310.440198 139.254053 324.053839 139.254053 
" clip-path="url(#p376ce0ef44)" style="fill: none; stroke: #56636b; stroke-width: 1.2; stroke-linecap: round"/>
    <path d="M 319.253839 136.854053 
L 324.053839 139.254053 
L 319.253839 141.654053 
z
" clip-path="url(#p376ce0ef44)" style="fill: #56636b; stroke: #56636b; stroke-width: 1.2; stroke-linecap: round"/>
   </g>
   <g id="patch_10">
    <path d="M 397.96482 139.254053 
Q 412.920102 139.254053 426.533743 139.254053 
" clip-path="url(#p376ce0ef44)" style="fill: none; stroke: #56636b; stroke-width: 1.2; stroke-linecap: round"/>
    <path d="M 421.733743 136.854053 
L 426.533743 139.254053 
L 421.733743 141.654053 
z
" clip-path="url(#p376ce0ef44)" style="fill: #56636b; stroke: #56636b; stroke-width: 1.2; stroke-linecap: round"/>
   </g>
   <g id="text_2">
    <text style="font-size: 8px; font-family: 'Microsoft YaHei', 'Arial', 'DejaVu Sans', sans-serif; text-anchor: middle; fill: #263238" x="54.240192" y="141.488428" transform="rotate(-0 54.240192 141.488428)">Input</text>
   </g>
   <g id="text_3">
    <text style="font-size: 8px; font-family: 'Microsoft YaHei', 'Arial', 'DejaVu Sans', sans-serif; text-anchor: middle; fill: #263238" x="156.720096" y="141.488428" transform="rotate(-0 156.720096 141.488428)">Encoder</text>
   </g>
   <g id="text_4">
    <text style="font-size: 8px; font-family: 'Microsoft YaHei', 'Arial', 'DejaVu Sans', sans-serif; text-anchor: middle; fill: #263238" x="259.2" y="141.488428" transform="rotate(-0 259.2 141.488428)">Solver</text>
   </g>
   <g id="text_5">
    <text style="font-size: 8px; font-family: 'Microsoft YaHei', 'Arial', 'DejaVu Sans', sans-serif; text-anchor: middle; fill: #263238" x="361.679904" y="141.488428" transform="rotate(-0 361.679904 141.488428)">Decoder</text>
   </g>
   <g id="text_6">
    <text style="font-size: 8px; font-family: 'Microsoft YaHei', 'Arial', 'DejaVu Sans', sans-serif; text-anchor: middle; fill: #263238" x="464.159808" y="141.488428" transform="rotate(-0 464.159808 141.488428)">Output</text>
   </g>
   <g id="text_7">
    <g id="patch_11">
     <path d="M 90.802566 123.122829 
L 120.157722 123.122829 
L 120.157722 113.284822 
L 90.802566 113.284822 
z
" style="fill: #ffffff; opacity: 0.86"/>
    </g>
    <text style="font-size: 7px; font-family: 'Microsoft YaHei', 'Arial', 'DejaVu Sans', sans-serif; text-anchor: middle; fill: #263238" x="105.480144" y="120.158904" transform="rotate(-0 105.480144 120.158904)">features</text>
   </g>
   <g id="text_8">
    <g id="patch_12">
     <path d="M 188.027548 123.122829 
L 227.892548 123.122829 
L 227.892548 113.284822 
L 188.027548 113.284822 
z
" style="fill: #ffffff; opacity: 0.86"/>
    </g>
    <text style="font-size: 7px; font-family: 'Microsoft YaHei', 'Arial', 'DejaVu Sans', sans-serif; text-anchor: middle; fill: #263238" x="207.960048" y="120.158904" transform="rotate(-0 207.960048 120.158904)">latent state</text>
   </g>
   <g id="text_9">
    <g id="patch_13">
     <path d="M 295.698936 123.122829 
L 325.180968 123.122829 
L 325.180968 113.284822 
L 295.698936 113.284822 
z
" style="fill: #ffffff; opacity: 0.86"/>
    </g>
    <text style="font-size: 7px; font-family: 'Microsoft YaHei', 'Arial', 'DejaVu Sans', sans-serif; text-anchor: middle; fill: #263238" x="310.439952" y="120.158904" transform="rotate(-0 310.439952 120.158904)">solution</text>
   </g>
   <g id="text_10">
    <g id="patch_14">
     <path d="M 394.679387 123.122829 
L 431.160325 123.122829 
L 431.160325 113.284822 
L 394.679387 113.284822 
z
" style="fill: #ffffff; opacity: 0.86"/>
    </g>
    <text style="font-size: 7px; font-family: 'Microsoft YaHei', 'Arial', 'DejaVu Sans', sans-serif; text-anchor: middle; fill: #263238" x="412.919856" y="120.158904" transform="rotate(-0 412.919856 120.158904)">prediction</text>
   </g>
  </g>
  <g id="text_11">
   <text style="font-size: 7px; font-family: 'Microsoft YaHei', 'Arial', 'DejaVu Sans', sans-serif; text-anchor: start; fill: #6e7c89" x="5.184" y="257.904" transform="rotate(-0 5.184 257.904)">This architecture is a supplied example structure; it does not describe a user model. · 练习数据 · illustrative practice data</text>
  </g>
 </g>
 <defs>
  <clipPath id="p376ce0ef44">
   <rect x="3.00024" y="22.308345" width="512.39952" height="233.891415"/>
  </clipPath>
 </defs>
</svg>
